<?xml version="1.0" encoding="UTF-8" standalone="no"?>
<svg
   width="10mm"
   height="10mm"
   version="1.1"
   id="svg1"
   sodipodi:docname="github-mark.svg"
   inkscape:version="1.3.2 (091e20ef0f, 2023-11-25, custom)"
   xmlns:inkscape="http://www.inkscape.org/namespaces/inkscape"
   xmlns:sodipodi="http://sodipodi.sourceforge.net/DTD/sodipodi-0.dtd"
   xmlns="http://www.w3.org/2000/svg"
   xmlns:svg="http://www.w3.org/2000/svg">
  <defs
     id="defs1" />
  <sodipodi:namedview
     id="namedview1"
     pagecolor="#505050"
     bordercolor="#eeeeee"
     borderopacity="1"
     inkscape:showpageshadow="0"
     inkscape:pageopacity="0"
     inkscape:pagecheckerboard="0"
     inkscape:deskcolor="#d1d1d1"
     inkscape:zoom="19.265306"
     inkscape:cx="18.634534"
     inkscape:cy="18.193326"
     inkscape:window-width="1499"
     inkscape:window-height="1243"
     inkscape:window-x="1968"
     inkscape:window-y="81"
     inkscape:window-maximized="0"
     inkscape:current-layer="svg1"
     inkscape:document-units="mm" />
  <path
     fill-rule="evenodd"
     clip-rule="evenodd"
     d="M 18.865234,0 C 8.433247,0 0,8.495418 0,19.005408 c 0,8.401197 5.403472,15.512633 12.89952,18.029594 0.937199,0.189217 1.280491,-0.408938 1.280491,-0.912098 0,-0.440603 -0.03089,-1.950858 -0.03089,-3.524441 C 8.9012673,33.731444 7.8084477,30.33289 7.8084477,30.33289 6.9650843,28.130259 5.7154855,27.564156 5.7154855,27.564156 c -1.717619,-1.164258 0.1251144,-1.164258 0.1251144,-1.164258 1.9052906,0.125886 2.9050468,1.950857 2.9050468,1.950857 1.6863403,2.89462 4.4037163,2.076743 5.4969213,1.573196 0.156007,-1.227201 0.656078,-2.076743 1.187041,-2.548625 -4.185537,-0.440604 -8.5892529,-2.076744 -8.5892529,-9.377011 0,-2.076743 0.7491414,-3.775827 1.936183,-5.09725 -0.1872853,-0.471882 -0.8433633,-2.423126 0.1876715,-5.034694 0,0 1.5928904,-0.5035466 5.1845224,1.9508568 a 18.137718,18.137718 0 0 1 4.716501,-0.6294332 c 1.592891,0 3.216674,0.2204947 4.716116,0.6294332 3.592017,-2.4544034 5.184907,-1.9508568 5.184907,-1.9508568 1.031035,2.611568 0.374571,4.562812 0.187286,5.034694 1.218321,1.321423 1.936569,3.020507 1.936569,5.09725 0,7.300267 -4.403716,8.904743 -8.620532,9.377011 0.687356,0.597768 1.280491,1.730362 1.280491,3.524054 0,2.548625 -0.03089,4.59409 -0.03089,5.223138 0,0.503546 0.343679,1.101701 1.280491,0.912871 7.496048,-2.517733 12.89952,-9.628784 12.89952,-18.029981 C 37.730083,8.495418 29.265943,0 18.865234,0 Z"
     fill="#24292f"
     id="path1"
     style="stroke-width:0.999999" />
</svg>
