<?xml version="1.0" encoding="UTF-8" standalone="no"?>
<!-- Created with Inkscape (http://www.inkscape.org/) -->

<svg
   width="10mm"
   height="10mm"
   viewBox="0 0 10 10"
   version="1.1"
   id="svg1"
   xml:space="preserve"
   inkscape:version="1.3.2 (091e20ef0f, 2023-11-25, custom)"
   sodipodi:docname="macos.svg"
   xmlns:inkscape="http://www.inkscape.org/namespaces/inkscape"
   xmlns:sodipodi="http://sodipodi.sourceforge.net/DTD/sodipodi-0.dtd"
   xmlns="http://www.w3.org/2000/svg"
   xmlns:svg="http://www.w3.org/2000/svg"><sodipodi:namedview
     id="namedview1"
     pagecolor="#505050"
     bordercolor="#eeeeee"
     borderopacity="1"
     inkscape:showpageshadow="0"
     inkscape:pageopacity="0"
     inkscape:pagecheckerboard="0"
     inkscape:deskcolor="#d1d1d1"
     inkscape:document-units="mm"
     inkscape:zoom="17.817968"
     inkscape:cx="19.025738"
     inkscape:cy="22.757926"
     inkscape:window-width="5120"
     inkscape:window-height="1371"
     inkscape:window-x="0"
     inkscape:window-y="32"
     inkscape:window-maximized="1"
     inkscape:current-layer="layer1" /><defs
     id="defs1" /><g
     inkscape:label="Layer 1"
     inkscape:groupmode="layer"
     id="layer1"><path
       style="fill:#999999;stroke-width:0.1;stroke-linecap:round;stroke-linejoin:round;fill-opacity:1"
       d="M 4.8734317,2.4569131 C 4.7403443,1.4762196 5.6387986,0.3323257 6.7741886,0.26064897 6.8354474,1.1166709 6.2464304,2.3753428 4.8734317,2.4569131 Z"
       id="path1"
       sodipodi:nodetypes="ccc" /><path
       style="fill:#999999;stroke:none;stroke-width:0.1;stroke-linecap:round;stroke-linejoin:round;stroke-opacity:1;fill-opacity:1"
       d="m 8.5090988,3.5061284 c -0.9297267,0.4120134 -1.8566105,2.6598067 0.2479011,3.7501419 -0.4867151,1.490805 -1.345925,2.2063022 -1.345925,2.2063022 0,0 -0.3368321,0.3189194 -0.7039179,0.3278931 C 6.0937908,9.8054598 5.697852,9.4064835 5.1444297,9.4041366 4.5910071,9.4017818 3.9751203,9.8404097 3.4832877,9.8218065 2.9914553,9.8032034 2.4549902,9.401367 1.9510505,8.5586188 1.4471107,7.7158709 0.92534966,6.3317127 0.96558982,5.4550537 1.00583,4.5783947 1.2825672,3.1841055 2.4911272,2.7406426 3.6996873,2.2971799 4.2583076,3.0116523 4.830373,3.0103667 c 0.5720654,-0.0013 1.0314511,-0.508579 1.9239211,-0.4709862 1.1523587,0.04854 1.7548047,0.9667479 1.7548047,0.9667479 z"
       id="path2"
       sodipodi:nodetypes="cccscsssscsc" /></g></svg>
