<?xml version="1.0" encoding="UTF-8" standalone="no"?>
<!-- Created with Inkscape (http://www.inkscape.org/) -->

<svg
   width="10mm"
   height="10mm"
   viewBox="0 0 10 10"
   version="1.1"
   id="svg1"
   xml:space="preserve"
   inkscape:version="1.3.2 (091e20ef0f, 2023-11-25, custom)"
   sodipodi:docname="phone.svg"
   xmlns:inkscape="http://www.inkscape.org/namespaces/inkscape"
   xmlns:sodipodi="http://sodipodi.sourceforge.net/DTD/sodipodi-0.dtd"
   xmlns="http://www.w3.org/2000/svg"
   xmlns:svg="http://www.w3.org/2000/svg"><sodipodi:namedview
     id="namedview1"
     pagecolor="#505050"
     bordercolor="#eeeeee"
     borderopacity="1"
     inkscape:showpageshadow="0"
     inkscape:pageopacity="0"
     inkscape:pagecheckerboard="0"
     inkscape:deskcolor="#d1d1d1"
     inkscape:document-units="mm"
     inkscape:zoom="17.817968"
     inkscape:cx="18.240014"
     inkscape:cy="22.757926"
     inkscape:window-width="5120"
     inkscape:window-height="1371"
     inkscape:window-x="0"
     inkscape:window-y="32"
     inkscape:window-maximized="1"
     inkscape:current-layer="layer1" /><defs
     id="defs1" /><g
     inkscape:label="Layer 1"
     inkscape:groupmode="layer"
     id="layer1"><path
       style="fill:#5a5b5c;fill-opacity:1;stroke:#000000;stroke-width:0.1;stroke-linecap:round;stroke-linejoin:round;stroke-opacity:1"
       d="M 3.7630243,1.4643782 C 3.0836498,0.60440973 2.7848484,0.27174103 2.4101828,0.52949211 1.5163187,1.1444258 0.2396545,2.4651318 0.47418309,3.1995284 0.70871177,3.9339249 2.5658356,5.7439825 3.662703,6.7185117 4.7595708,7.6930407 6.6069202,9.1730482 7.224309,9.3698938 7.8416974,9.5667394 9.4459079,8.1801107 9.5262882,7.1178095 9.5693435,6.5487934 9.2370049,6.3611483 8.809237,6.1035216 8.3673224,5.8373748 7.9081877,5.5385465 7.638748,5.7231493 6.9650059,6.1847537 6.3881019,6.7475182 6.3881019,6.7475182 c 0,0 -0.9466925,-0.5734145 -1.7208826,-1.1584526 C 3.8930293,5.0040276 3.3259387,4.0766253 3.1901665,3.6385892 3.7977644,3.0216955 4.6712831,2.6140739 3.7630243,1.4643782 Z"
       id="path2"
       sodipodi:nodetypes="sssssssscscs" /></g></svg>
